<svg id="Ebene_2" data-name="Ebene 2" xmlns="http://www.w3.org/2000/svg" viewBox="0 0 76.78 80.53"><defs><style>.cls-1{fill:#fff;}</style></defs><path class="cls-1" d="M49.63,51.9h0L36,51.36a1,1,0,0,1,.08-2l13.56.54a1,1,0,0,1,0,2Z" transform="translate(-9.63 -9.35)"/><path class="cls-1" d="M36.61,59.17a1,1,0,0,1-1-.74,1,1,0,0,1,.7-1.23c4.59-1.23,12.12-3.32,12.84-3.66a1,1,0,0,1,1.33.48,1,1,0,0,1-.46,1.33c-1,.48-11.16,3.24-13.18,3.78A.84.84,0,0,1,36.61,59.17Z" transform="translate(-9.63 -9.35)"/><path class="cls-1" d="M51.36,42.34a1,1,0,0,1-1-.76c-.19-.75-.42-1.59-.63-2.25l-.35.46a12.92,12.92,0,0,1-2,2.36A1,1,0,0,1,46,41.92a1,1,0,0,1,.23-1.4,17,17,0,0,0,1.58-1.94c1.12-1.47,1.43-1.86,1.92-2a1.14,1.14,0,0,1,.83.11c.31.18.78.45,1.77,4.4a1,1,0,0,1-.73,1.22Z" transform="translate(-9.63 -9.35)"/><path class="cls-1" d="M68,43.77a1,1,0,0,1-.85-.48,15.1,15.1,0,0,1-1-2.75,14.12,14.12,0,0,0-1.71,2.26,1,1,0,0,1-1.77-.93,24.65,24.65,0,0,1,3.24-4,1,1,0,0,1,1-.27,1,1,0,0,1,.71.71,29,29,0,0,0,1.28,4,1,1,0,0,1-.33,1.37A1,1,0,0,1,68,43.77Z" transform="translate(-9.63 -9.35)"/><path class="cls-1" d="M24.43,89.88a16.78,16.78,0,0,1-5.87-1C15.26,87.65,9.71,84.22,9.63,75,9.48,58.3,52.73,11.65,54.57,9.67a1,1,0,0,1,1.08-.26,1,1,0,0,1,.65.91c0,.15.4,14.29,2.7,23.09a97,97,0,0,0,7.82-9.58c3.24-4.29,6.59-8.72,9.63-11.63A1,1,0,0,1,77.58,12a1,1,0,0,1,.56,1c-1.66,19.65-3.72,36.89-6.67,55.9l-.14,1.67a1,1,0,1,1-2-.17l.15-1.74c2.81-18.11,4.8-34.57,6.42-53-2.41,2.66-5,6.07-7.49,9.39-3.47,4.58-6.74,8.9-9.33,11a1,1,0,0,1-1.58-.49c-2.14-6.87-2.88-17.83-3.11-22.69-8,8.84-42.9,48-42.77,62.15,0,6,2.76,10.22,7.62,12,5.61,2.08,12.86.44,16.5-3.72,2.7-3.08,3.82-6.15,3.25-8.88a6.15,6.15,0,0,0-2.92-4.16c-2-.95-5.68.07-7.57,2.84A1,1,0,1,1,26.86,72c2.55-3.74,7.27-4.83,10.07-3.52A8.06,8.06,0,0,1,41,74c.49,2.35.25,6.09-3.7,10.61C34.32,88,29.34,89.88,24.43,89.88Z" transform="translate(-9.63 -9.35)"/><path class="cls-1" d="M68,51.36a1,1,0,0,1-.2-2c.12,0,11.94-2.4,17.51-3.15a1,1,0,0,1,1.12.85,1,1,0,0,1-.86,1.13C80,49,68.29,51.32,68.17,51.34A.68.68,0,0,1,68,51.36Z" transform="translate(-9.63 -9.35)"/><path class="cls-1" d="M85,57.76h-.14l-4.1-.58c-5.19-.72-12.28-1.72-13.38-1.72a1,1,0,0,1,0-2c1.15,0,6.62.75,13.66,1.74l4.1.58a1,1,0,0,1-.14,2Z" transform="translate(-9.63 -9.35)"/><path class="cls-1" d="M58.92,53.57a1,1,0,0,1-.84-.45L58,53a1,1,0,0,1-.16-.55,1,1,0,0,1,1.84-.55l.08.13a1,1,0,0,1,.17.55,1,1,0,0,1-.45.83A1,1,0,0,1,58.92,53.57Z" transform="translate(-9.63 -9.35)"/></svg>