<svg id="Ebene_2" data-name="Ebene 2" xmlns="http://www.w3.org/2000/svg" viewBox="0 0 88.8 93.09"><defs><style>.cls-1{fill:#fff;}</style></defs><path class="cls-1" d="M51.88,52.58h-.06L36.27,52a1.5,1.5,0,0,1,.12-3l15.55.62a1.5,1.5,0,0,1-.06,3Z" transform="translate(-5.63 -3.05)"/><path class="cls-1" d="M37,60.92a1.5,1.5,0,0,1-.39-3c6.52-1.76,13.88-3.83,14.68-4.18a1.5,1.5,0,0,1,1.29,2.71c-1.16.55-11.92,3.48-15.19,4.36A1.32,1.32,0,0,1,37,60.92Z" transform="translate(-5.63 -3.05)"/><path class="cls-1" d="M53.87,41.61a1.51,1.51,0,0,1-1.46-1.14c-.15-.62-.34-1.29-.52-1.9a15,15,0,0,1-2.38,2.76,1.5,1.5,0,0,1-1.75-2.44,21.43,21.43,0,0,0,1.76-2.16c1.33-1.76,1.71-2.23,2.38-2.42a1.63,1.63,0,0,1,1.22.16c.46.26,1,.59,2.2,5.27a1.51,1.51,0,0,1-1.09,1.82A1.49,1.49,0,0,1,53.87,41.61Z" transform="translate(-5.63 -3.05)"/><path class="cls-1" d="M72.91,43.24a1.48,1.48,0,0,1-1.27-.71,14.42,14.42,0,0,1-1-2.63A14.21,14.21,0,0,0,69.12,42a1.49,1.49,0,0,1-2,.63,1.51,1.51,0,0,1-.63-2,28.15,28.15,0,0,1,3.78-4.7,1.5,1.5,0,0,1,1.45-.41,1.52,1.52,0,0,1,1.07,1.07A33.89,33.89,0,0,0,74.2,41,1.51,1.51,0,0,1,73.69,43,1.55,1.55,0,0,1,72.91,43.24Z" transform="translate(-5.63 -3.05)"/><path class="cls-1" d="M23,96.15A19.7,19.7,0,0,1,16.11,95C12.24,93.53,5.73,89.51,5.63,78.71,5.46,59.42,55.17,5.81,57.29,3.53a1.52,1.52,0,0,1,1.63-.38,1.49,1.49,0,0,1,1,1.36c0,.17.45,15.73,2.93,25.81a120.58,120.58,0,0,0,8.51-10.51C75,14.88,78.9,9.78,82.41,6.43a1.5,1.5,0,0,1,2.53,1.21C83,30.18,80.68,50,77.29,71.74l-.16,1.94a1.53,1.53,0,0,1-1.62,1.37,1.5,1.5,0,0,1-1.37-1.62l.17-2a.41.41,0,0,1,0-.11C77.48,51,79.75,32.4,81.58,11.66c-2.55,2.92-5.24,6.48-7.87,10C69.73,26.89,66,31.87,63,34.26a1.5,1.5,0,0,1-1.37.26,1.53,1.53,0,0,1-1-1C58.24,26,57.35,14.19,57,8.25,46.87,19.48,8.49,62.9,8.63,78.68c.06,6.68,3.09,11.46,8.52,13.48,6.21,2.3,14.52.43,18.54-4.17,3-3.45,4.29-6.87,3.65-9.88a6.67,6.67,0,0,0-3.15-4.52c-2.19-1-6.17.09-8.25,3.13A1.5,1.5,0,1,1,25.47,75c3-4.44,8.64-5.73,12-4.16a9.63,9.63,0,0,1,4.82,6.62c.58,2.77.3,7.19-4.33,12.48C34.51,93.9,28.69,96.15,23,96.15Z" transform="translate(-5.63 -3.05)"/><path class="cls-1" d="M72.92,52a1.5,1.5,0,0,1-.3-3c.56-.11,13.71-2.76,20.11-3.63a1.5,1.5,0,0,1,.4,3c-6.3.85-19.78,3.56-19.91,3.59A1.53,1.53,0,0,1,72.92,52Z" transform="translate(-5.63 -3.05)"/><path class="cls-1" d="M92.5,59.3l-.21,0-4.72-.66c-5.6-.79-14.06-2-15.3-2a1.5,1.5,0,0,1,0-3c1.34,0,7.63.87,15.72,2l4.71.66a1.5,1.5,0,0,1-.2,3Z" transform="translate(-5.63 -3.05)"/><path class="cls-1" d="M62.53,54.49a1.49,1.49,0,0,1-1.25-.68l-.1-.15a1.46,1.46,0,0,1-.25-.82A1.5,1.5,0,0,1,63.69,52l.1.15A1.53,1.53,0,0,1,64,53a1.49,1.49,0,0,1-.68,1.25A1.44,1.44,0,0,1,62.53,54.49Z" transform="translate(-5.63 -3.05)"/></svg>